<svg width="120" height="40" xmlns="http://www.w3.org/2000/svg" style="background-color: #f0f0f0;">
  <line x1="28.724173949469716" y1="30.5518173351554" x2="43.66947613089545" y2="11.765121629793311" stroke="rgb(198,164,158)" stroke-width="1" opacity="0.5277716574153145"/>
  <line x1="16.89005066447421" y1="2.6191170935993124" x2="112.85340450923272" y2="3.427715113916472" stroke="rgb(218,179,136)" stroke-width="1" opacity="0.5471907847167153"/>
  <line x1="4.8825552731445665" y1="6.538899605640038" x2="115.52116634838245" y2="24.945079089287532" stroke="rgb(41,141,75)" stroke-width="1" opacity="0.5769252960353891"/>
  <circle cx="61.27287292258842" cy="36.844368617843706" r="1" fill="rgb(92,102,73)" opacity="0.9458184998495824"/>
  <circle cx="14.03188308193136" cy="16.577880901264486" r="1" fill="rgb(168,237,182)" opacity="0.6141871946249382"/>
  <circle cx="87.57364504607382" cy="15.220588024018804" r="1" fill="rgb(99,26,147)" opacity="0.680521894386265"/>
  <circle cx="95.1397250620486" cy="18.97138701212868" r="1" fill="rgb(1,178,17)" opacity="0.47491510255536085"/>
  <circle cx="107.45501225986456" cy="32.481141484293474" r="1" fill="rgb(64,109,176)" opacity="0.5211216790488848"/>
  <circle cx="16.409236412838865" cy="39.597509181120465" r="1" fill="rgb(95,131,191)" opacity="0.4833707269938615"/>
  <circle cx="74.30935458149814" cy="36.21440519204971" r="1" fill="rgb(146,168,40)" opacity="0.3317300775870015"/>
  <circle cx="50.88899104183629" cy="9.70703291086199" r="1" fill="rgb(254,174,113)" opacity="0.9138535229987093"/>
  <circle cx="20.235396319872898" cy="4.660805883006276" r="1" fill="rgb(149,253,227)" opacity="0.3010926585020813"/>
  <circle cx="1.9081292878103007" cy="16.586320071027973" r="1" fill="rgb(135,9,25)" opacity="0.9225854235573487"/>
  <circle cx="5.124992456277662" cy="20.746428623702524" r="1" fill="rgb(106,104,68)" opacity="0.8146124594662145"/>
  <circle cx="60.12340265257428" cy="16.338678987325856" r="1" fill="rgb(23,125,143)" opacity="0.4197303645080654"/>
  <circle cx="31.740144332226407" cy="34.99663217963906" r="1" fill="rgb(7,6,95)" opacity="0.7494940153178155"/>
  <circle cx="62.34218355822208" cy="28.980257993433824" r="1" fill="rgb(176,75,71)" opacity="0.7340933443706614"/>
  <circle cx="57.838120017042186" cy="37.00972097915517" r="1" fill="rgb(181,168,171)" opacity="0.5168750653841163"/>
  <circle cx="29.719574772363224" cy="34.878333491378264" r="1" fill="rgb(20,57,19)" opacity="0.9923978433849625"/>
  <circle cx="56.730631721273056" cy="12.244295075320526" r="1" fill="rgb(154,203,196)" opacity="0.9343603892468915"/>
  <circle cx="47.61158858331859" cy="38.11934682730525" r="1" fill="rgb(81,191,79)" opacity="0.7990869631626166"/>
  <circle cx="119.95126285345702" cy="31.076648524271793" r="1" fill="rgb(97,111,17)" opacity="0.7568651670839529"/>
  <circle cx="62.51231004065077" cy="16.374556022131017" r="1" fill="rgb(161,204,208)" opacity="0.6521611484012044"/>
  <circle cx="20.04529707021705" cy="18.79412659753448" r="1" fill="rgb(203,92,51)" opacity="0.6618556553320375"/>
  <circle cx="46.983144181680316" cy="32.104330902890865" r="1" fill="rgb(187,222,61)" opacity="0.6684069129154522"/>
  <circle cx="71.6187735373379" cy="13.633691243837518" r="1" fill="rgb(137,7,60)" opacity="0.7299006646662355"/>
  <circle cx="107.01881319452812" cy="36.172650437180344" r="1" fill="rgb(116,197,246)" opacity="0.6538718925654552"/>
  <circle cx="63.04238235908903" cy="2.4436809253749114" r="1" fill="rgb(5,86,193)" opacity="0.45275238025984305"/>
  <circle cx="69.93178921172647" cy="15.405510672515934" r="1" fill="rgb(178,219,126)" opacity="0.48255765816817814"/>
  <circle cx="66.90752073955133" cy="16.975429670060844" r="1" fill="rgb(11,191,247)" opacity="0.6666298706295537"/>
  <circle cx="17.66617771419396" cy="27.838230460074776" r="1" fill="rgb(54,23,70)" opacity="0.6662087179965201"/>
  <circle cx="47.0791719459745" cy="25.32753593483526" r="1" fill="rgb(66,49,214)" opacity="0.8820322799475611"/>
  <circle cx="26.59831851922184" cy="8.660630491238406" r="1" fill="rgb(49,99,241)" opacity="0.7691105551903502"/>
  <text x="20" y="26.34889599029632" font-family="Arial, sans-serif" font-size="32" font-weight="bold" fill="rgb(68,54,47)" transform="rotate(6.867599178835427 20 26.34889599029632)">5</text>
  <text x="45" y="28.546600079379694" font-family="Arial, sans-serif" font-size="32" font-weight="bold" fill="rgb(35,66,105)" transform="rotate(3.0856278836613082 45 28.546600079379694)">6</text>
  <text x="70" y="27.23947517103403" font-family="Arial, sans-serif" font-size="32" font-weight="bold" fill="rgb(63,9,87)" transform="rotate(-8.500143357478738 70 27.23947517103403)">8</text>
  <text x="95" y="28.059781131284595" font-family="Arial, sans-serif" font-size="32" font-weight="bold" fill="rgb(66,12,108)" transform="rotate(-6.866442482176192 95 28.059781131284595)">7</text>
</svg>