<svg width="120" height="40" xmlns="http://www.w3.org/2000/svg" style="background-color: #f0f0f0;">
  <line x1="61.397147463159456" y1="12.83439627332216" x2="80.34691548103649" y2="26.79015312805835" stroke="rgb(49,93,51)" stroke-width="1" opacity="0.7540202443653266"/>
  <line x1="37.90809980209612" y1="11.942172942282037" x2="30.86597964576482" y2="4.413676588566782" stroke="rgb(174,59,118)" stroke-width="1" opacity="0.6388418141157443"/>
  <line x1="76.03312876421145" y1="3.986553203375207" x2="25.179642029219593" y2="35.07172488152407" stroke="rgb(85,215,179)" stroke-width="1" opacity="0.8722252499636288"/>
  <circle cx="15.929478701835542" cy="21.9480949392487" r="1" fill="rgb(87,133,187)" opacity="0.512784530622921"/>
  <circle cx="43.480992327329034" cy="11.753784905484848" r="1" fill="rgb(93,143,139)" opacity="0.5112974168713954"/>
  <circle cx="16.871651133672152" cy="20.769114090673455" r="1" fill="rgb(218,57,22)" opacity="0.5279645371629099"/>
  <circle cx="65.40452678680846" cy="16.7461810253537" r="1" fill="rgb(51,42,6)" opacity="0.5524816997634067"/>
  <circle cx="94.7736964142614" cy="17.518391132432214" r="1" fill="rgb(163,228,204)" opacity="0.8883569239896554"/>
  <circle cx="89.97209991289905" cy="31.6823274292266" r="1" fill="rgb(251,139,27)" opacity="0.7811620681077575"/>
  <circle cx="13.39036929931849" cy="36.666208986324065" r="1" fill="rgb(87,22,106)" opacity="0.3073483401107252"/>
  <circle cx="66.17987962221588" cy="28.898116190838074" r="1" fill="rgb(39,95,171)" opacity="0.7761718091879123"/>
  <circle cx="36.33674071880871" cy="12.514313230578438" r="1" fill="rgb(26,201,206)" opacity="0.36406280325500695"/>
  <circle cx="0.6183936208658203" cy="32.3864262080972" r="1" fill="rgb(146,51,119)" opacity="0.8722978602977771"/>
  <circle cx="27.06035076076364" cy="13.001283328312372" r="1" fill="rgb(133,150,81)" opacity="0.6594793782019055"/>
  <circle cx="11.19228992508396" cy="39.233190706064974" r="1" fill="rgb(73,27,134)" opacity="0.6823693229743898"/>
  <circle cx="100.19748464496752" cy="33.70399254629709" r="1" fill="rgb(8,33,32)" opacity="0.4267988957169817"/>
  <circle cx="80.81153344688703" cy="19.622697824310027" r="1" fill="rgb(176,107,138)" opacity="0.8730197230508834"/>
  <circle cx="61.27797388507205" cy="28.48408172796315" r="1" fill="rgb(85,228,8)" opacity="0.511058037555469"/>
  <circle cx="38.82103571691534" cy="25.79432358818222" r="1" fill="rgb(151,160,103)" opacity="0.7436444494715275"/>
  <circle cx="48.3223945078474" cy="25.277077501022713" r="1" fill="rgb(182,112,154)" opacity="0.7562903414990652"/>
  <circle cx="38.613487690015646" cy="18.96421219932707" r="1" fill="rgb(92,65,85)" opacity="0.3826259766005683"/>
  <circle cx="105.1970482521148" cy="23.71121126432584" r="1" fill="rgb(183,187,30)" opacity="0.6907462738564893"/>
  <circle cx="71.0977224584247" cy="33.429221151781476" r="1" fill="rgb(241,153,191)" opacity="0.40015833465635603"/>
  <circle cx="87.29549120084533" cy="36.653163210659095" r="1" fill="rgb(183,143,201)" opacity="0.8774719607901826"/>
  <circle cx="57.88749760423772" cy="19.45424953121644" r="1" fill="rgb(234,11,54)" opacity="0.6416963432910234"/>
  <circle cx="55.605515072256004" cy="16.574551468159775" r="1" fill="rgb(124,231,233)" opacity="0.39352952497760324"/>
  <circle cx="112.45558463163465" cy="29.12745221934135" r="1" fill="rgb(175,189,234)" opacity="0.9402627132417731"/>
  <circle cx="23.795230836244237" cy="39.353643119759774" r="1" fill="rgb(30,84,226)" opacity="0.6133830709535626"/>
  <circle cx="17.59913505373361" cy="20.996016586385835" r="1" fill="rgb(35,17,160)" opacity="0.8454222348886542"/>
  <circle cx="96.32568834115703" cy="23.455884979870714" r="1" fill="rgb(58,69,22)" opacity="0.4057201171091581"/>
  <circle cx="107.8697467757057" cy="12.290694976682364" r="1" fill="rgb(219,77,0)" opacity="0.809031424030088"/>
  <circle cx="76.62521980876856" cy="29.229238672290904" r="1" fill="rgb(196,242,151)" opacity="0.7040496319520226"/>
  <circle cx="101.25710766313898" cy="21.373280343721035" r="1" fill="rgb(104,34,118)" opacity="0.8385334842509184"/>
  <text x="20" y="20.002345677280793" font-family="Arial, sans-serif" font-size="32" font-weight="bold" fill="rgb(126,33,18)" transform="rotate(4.210084538196504 20 20.002345677280793)">2</text>
  <text x="45" y="26.807793122390954" font-family="Arial, sans-serif" font-size="32" font-weight="bold" fill="rgb(72,71,117)" transform="rotate(-6.267975224427524 45 26.807793122390954)">5</text>
  <text x="70" y="23.974195721344753" font-family="Arial, sans-serif" font-size="32" font-weight="bold" fill="rgb(6,121,78)" transform="rotate(9.332975086555578 70 23.974195721344753)">4</text>
  <text x="95" y="22.356778770835454" font-family="Arial, sans-serif" font-size="32" font-weight="bold" fill="rgb(58,43,78)" transform="rotate(-9.763811499717416 95 22.356778770835454)">2</text>
</svg>